# xmcd
#
# Track frame offsets: 
#        150
#        19955
#        37430
#        59487
#        78237
#        98087
#        115685
#        134822
#        155927
#        174517
#        199537
#        215065
#        236800
#        256520
#
# Disc length: 3737 seconds
#
# Revision: 2
# Processed by: cddbd v1.4PL0 Copyright (c) Steve Scherf et al.
# Submitted via: ExactAudioCopy v0.90b4
#
DISCID=cd0e970e
DTITLE=Simone Hines - Simone Hines
DYEAR=1997
DGENRE=
TTITLE0=Yeah! Yeah!  Yeah!
TTITLE1=The Way That You Feel
TTITLE2=What Difference (Does It Make)
TTITLE3=Best Of My Love
TTITLE4=Only Fools Fool Around
TTITLE5=Every Little Thing
TTITLE6=Never Been Alone
TTITLE7=I'm Ready
TTITLE8=Richest Woman In The World
TTITLE9=The Other Man
TTITLE10=Every Now And Then
TTITLE11=Call Me Up
TTITLE12=A Chance To Love
TTITLE13=Where Do I Go From Here
EXTD=
EXTT0=
EXTT1=
EXTT2=
EXTT3=
EXTT4=
EXTT5=
EXTT6=
EXTT7=
EXTT8=
EXTT9=
EXTT10=
EXTT11=
EXTT12=
EXTT13=
PLAYORDER=
